<svg width="64" height="64" viewBox="0 0 64 64" fill="none" xmlns="http://www.w3.org/2000/svg">
<path d="M21 49.25C23.0711 49.25 24.75 50.929 24.75 53C24.75 55.071 23.0711 56.75 21 56.75C18.9289 56.75 17.25 55.071 17.25 53C17.25 50.929 18.9289 49.25 21 49.25Z" stroke="#B0323A" stroke-width="2.5"/>
<path d="M45 49.25C47.071 49.25 48.75 50.9287 48.75 53C48.75 55.071 47.071 56.75 45 56.75C42.929 56.75 41.25 55.071 41.25 53C41.25 50.9287 42.929 49.25 45 49.25Z" stroke="#B0323A" stroke-width="2.5"/>
<path d="M5.99666 6.11323C4.95461 5.74685 3.81287 6.29461 3.44653 7.33664C3.08015 8.37869 3.62792 9.52043 4.66994 9.88677L5.99666 6.11323ZM55.0874 26.354L57.0461 26.7579L57.0488 26.7456L55.0874 26.354ZM15.2215 26.0267V18.769H11.2215V26.0267H15.2215ZM6.69322 6.35811L5.99666 6.11323L4.66994 9.88677L5.3665 10.1317L6.69322 6.35811ZM29.1666 43.3333H43.3077V39.3333H29.1666V43.3333ZM15.2215 18.769C15.2215 16.8832 15.2242 15.3096 15.0858 14.0309C14.9425 12.7072 14.6321 11.4999 13.8802 10.3995L10.5776 12.6563C10.8183 13.0086 11.0042 13.4924 11.109 14.4613C11.2188 15.4752 11.2215 16.7958 11.2215 18.769H15.2215ZM5.3665 10.1317C7.14679 10.7576 8.31679 11.1724 9.17773 11.5948C9.98631 11.9916 10.3428 12.3127 10.5776 12.6563L13.8802 10.3995C13.1223 9.29059 12.1147 8.58035 10.9397 8.00381C9.81701 7.45293 8.38383 6.95251 6.69322 6.35811L5.3665 10.1317ZM11.2215 26.0267C11.2215 29.9 11.2579 32.6931 11.6233 34.8269C12.0135 37.1051 12.7926 38.7363 14.2492 40.2725L17.1519 37.5205C16.2982 36.62 15.8376 35.7381 15.5659 34.1517C15.2695 32.4208 15.2215 29.9973 15.2215 26.0267H11.2215ZM29.1666 39.3333C25.3885 39.3333 22.767 39.3285 20.7919 39.0485C18.8857 38.7781 17.8787 38.2869 17.1519 37.5205L14.2492 40.2725C15.8328 41.9429 17.8403 42.6701 20.2303 43.0088C22.5513 43.3381 25.5076 43.3333 29.1666 43.3333V39.3333ZM13.2215 18.32H45.5701V14.32H13.2215V18.32ZM53.1285 25.9503L51.796 32.4163L55.7136 33.2237L57.0461 26.7579L53.1285 25.9503ZM45.5701 18.32C47.8538 18.32 49.8637 18.3227 51.4498 18.5C52.2381 18.5881 52.828 18.7105 53.2424 18.8561C53.6728 19.0074 53.7413 19.1234 53.7069 19.0784L56.8773 16.6394C56.2506 15.825 55.3696 15.3639 54.5685 15.0823C53.7512 14.7951 52.8269 14.629 51.8944 14.5247C50.0389 14.3173 47.7797 14.32 45.5701 14.32V18.32ZM57.0488 26.7456C57.5 24.4845 57.8832 22.5873 57.977 21.0677C58.0733 19.5045 57.8954 17.9631 56.8773 16.6394L53.7069 19.0784C53.8722 19.2935 54.0549 19.681 53.9845 20.8213C53.9114 22.0051 53.6005 23.5861 53.1261 25.9625L57.0488 26.7456ZM43.3077 43.3333C45.3389 43.3333 47.0434 43.3368 48.4176 43.1685C49.8461 42.9939 51.149 42.6117 52.2864 41.6848L49.7594 38.584C49.4256 38.856 48.9522 39.0733 47.9317 39.1984C46.8565 39.3299 45.4392 39.3333 43.3077 39.3333V43.3333ZM51.796 32.4163C51.3656 34.5037 51.076 35.8915 50.7301 36.9179C50.4018 37.892 50.0933 38.312 49.7594 38.584L52.2864 41.6848C53.4237 40.7579 54.061 39.5589 54.5208 38.1952C54.9629 36.8832 55.3034 35.2131 55.7136 33.2237L51.796 32.4163Z" fill="#B0323A"/>
</svg>
