<svg width="36" height="32" viewBox="0 0 36 32" fill="none" xmlns="http://www.w3.org/2000/svg">
<path fill-rule="evenodd" clip-rule="evenodd" d="M18 3.29058C14.1287 -0.246258 9.79361 -0.741021 6.28034 0.898823C2.56975 2.63077 0 6.65239 0 11.2895C0 15.8469 1.85944 19.3238 4.29776 22.1273C6.25039 24.3724 8.64037 26.2517 10.7512 27.9112C11.2296 28.2874 11.6938 28.6524 12.1352 29.0077C12.9929 29.6981 13.9136 30.4343 14.8467 30.9911C15.7796 31.5476 16.844 32 18 32C19.156 32 20.2204 31.5476 21.1533 30.9911C22.0864 30.4343 23.007 29.6981 23.8648 29.0077C24.3062 28.6524 24.7703 28.2874 25.2489 27.9112C27.3597 26.2517 29.7496 24.3724 31.7023 22.1273C34.1406 19.3238 36 15.8469 36 11.2895C36 6.65239 33.4303 2.63077 29.7196 0.898823C26.2063 -0.741021 21.8714 -0.246258 18 3.29058Z" fill="#B0323A"/>
</svg>
