<svg width="64" height="64" viewBox="0 0 64 64" fill="none" xmlns="http://www.w3.org/2000/svg">
<path fill-rule="evenodd" clip-rule="evenodd" d="M14.9983 11.7976C10.5744 13.8198 7.33337 18.6297 7.33337 24.3654C7.33337 30.2251 9.73129 34.7416 13.1688 38.6125C16.002 41.8027 19.4316 44.4467 22.7764 47.0253C23.5708 47.6379 24.3604 48.2467 25.1362 48.8581C26.5389 49.964 27.7902 50.9344 28.9963 51.6392C30.203 52.3445 31.1744 52.6664 32 52.6664C32.8256 52.6664 33.7971 52.3445 35.0038 51.6392C36.2099 50.9344 37.4611 49.964 38.864 48.8581C39.6398 48.2467 40.4294 47.6379 41.2238 47.0253C44.5686 44.4467 47.9982 41.8027 50.8312 38.6125C54.2688 34.7416 56.6667 30.2251 56.6667 24.3654C56.6667 18.6297 53.4256 13.8198 49.0016 11.7976C44.7038 9.83304 38.9288 10.3533 33.4411 16.0551C33.064 16.4468 32.5438 16.6681 32 16.6681C31.4563 16.6681 30.936 16.4468 30.559 16.0551C25.0711 10.3533 19.2962 9.83304 14.9983 11.7976ZM32 11.8899C25.8346 6.37374 18.9306 5.60208 13.3354 8.15965C7.42593 10.8609 3.33337 17.1332 3.33337 24.3654C3.33337 31.4733 6.29471 36.896 10.178 41.2685C13.2877 44.7701 17.094 47.7011 20.4556 50.2893C21.2176 50.876 21.9568 51.4453 22.6598 51.9995C24.0258 53.0763 25.4921 54.2245 26.9782 55.0928C28.4638 55.9608 30.159 56.6664 32 56.6664C33.8411 56.6664 35.5363 55.9608 37.0219 55.0928C38.508 54.2245 39.9742 53.0763 41.3403 51.9995C42.0432 51.4453 42.7824 50.876 43.5446 50.2893C46.9062 47.7011 50.7123 44.7701 53.8222 41.2685C57.7054 36.896 60.6667 31.4733 60.6667 24.3654C60.6667 17.1332 56.5742 10.8609 50.6646 8.15965C45.0694 5.60208 38.1656 6.37374 32 11.8899Z" fill="#B0323A"/>
</svg>
