<svg width="64" height="64" viewBox="0 0 64 64" fill="none" xmlns="http://www.w3.org/2000/svg">
<path fill-rule="evenodd" clip-rule="evenodd" d="M22 24C22 18.4771 26.4771 14 32 14C37.5229 14 42 18.4771 42 24C42 29.5229 37.5229 34 32 34C26.4771 34 22 29.5229 22 24ZM32 18C28.6864 18 26 20.6863 26 24C26 27.3136 28.6864 30 32 30C35.3136 30 38 27.3136 38 24C38 20.6863 35.3136 18 32 18Z" fill="#B0323A"/>
<path fill-rule="evenodd" clip-rule="evenodd" d="M3.33337 32C3.33337 16.1678 16.1679 3.33333 32 3.33333C47.8323 3.33333 60.6667 16.1678 60.6667 32C60.6667 47.8323 47.8323 60.6667 32 60.6667C16.1679 60.6667 3.33337 47.8323 3.33337 32ZM32 7.33333C18.377 7.33333 7.33337 18.377 7.33337 32C7.33337 38.7883 10.0754 44.936 14.5123 49.396C14.9934 46.8011 15.9385 44.3544 17.8357 42.3869C20.6734 39.444 25.2111 38 32 38C38.7886 38 43.3264 39.444 46.164 42.3869C48.0614 44.3544 49.0064 46.8013 49.4875 49.3963C53.9246 44.9363 56.6667 38.7883 56.6667 32C56.6667 18.377 45.623 7.33333 32 7.33333ZM45.8499 52.4144C45.5782 49.1827 44.8763 46.8141 43.2848 45.1635C41.5528 43.3675 38.3438 42 32 42C25.656 42 22.447 43.3675 20.7151 45.1635C19.1234 46.8141 18.4217 49.1824 18.15 52.4141C22.0983 55.0981 26.8659 56.6667 32 56.6667C37.1339 56.6667 41.9016 55.0981 45.8499 52.4144Z" fill="#B0323A"/>
</svg>
