<svg width="150" height="100" viewBox="0 0 150 100" fill="none" xmlns="http://www.w3.org/2000/svg">
<path fill-rule="evenodd" clip-rule="evenodd" d="M148.253 2.27752C150.861 5.01217 150.509 9.1293 147.465 11.4733L79.7241 63.6466C77.0057 65.7396 72.9954 65.7396 70.2771 63.6466L2.53568 11.4733C-0.507843 9.1293 -0.860092 5.01217 1.74794 2.27752C4.35695 -0.457117 8.93918 -0.773892 11.9827 1.57015L75.0006 50.1051L138.018 1.57015C141.062 -0.773892 145.644 -0.457117 148.253 2.27752ZM148.251 37.061C150.86 39.7957 150.508 43.9131 147.464 46.2574L79.7231 98.4303C77.0048 100.523 72.9945 100.523 70.2761 98.4303L2.53471 46.2574C-0.508804 43.9131 -0.861053 39.7957 1.74698 37.061C4.356 34.3263 8.93822 34.0098 11.9817 36.3541L74.9996 84.8888L138.017 36.3541C141.061 34.0098 145.643 34.3263 148.251 37.061Z" fill="#B0323A"/>
</svg>
